<svg width="32" height="32" viewBox="0 0 32 32" fill="none" xmlns="http://www.w3.org/2000/svg">
<path fill-rule="evenodd" clip-rule="evenodd" d="M16.0002 0C7.16358 0 9.15527e-05 7.1632 9.15527e-05 15.9995C9.15527e-05 24.8357 7.16358 31.9989 16.0002 31.9989C24.8368 31.9989 32.0003 24.8357 32.0003 15.9995C32.0003 7.1632 24.8368 0 16.0002 0ZM19.8998 22.1443C21.1032 22.1443 21.921 21.9457 22.3526 21.5487C22.7844 21.1517 23.0002 20.404 23.0002 19.3055V17.6574C23.0002 16.5589 22.789 15.8135 22.3664 15.4209C21.9439 15.0287 21.1216 14.8326 19.8998 14.8326H12.128V12.2983H20.3408V13.5861L22.8625 13.0462V12.7554C22.8625 11.786 22.6398 11.1097 22.1942 10.7266C21.7486 10.3434 20.9241 10.1519 19.7207 10.1519H14.9924V8.44609C14.9924 8.31822 14.9416 8.19559 14.8512 8.10517C14.7607 8.01476 14.6381 7.96396 14.5102 7.96396H13.593C13.4651 7.96396 13.3425 8.01476 13.2521 8.10517C13.1616 8.19559 13.1108 8.31822 13.1108 8.44609V10.1519H12.6377C11.4161 10.1519 10.5891 10.3528 10.1575 10.7544C9.72567 11.156 9.50966 11.8968 9.50966 12.9769V14.32C9.50966 15.4096 9.72567 16.155 10.1575 16.5566C10.5891 16.9583 11.4161 17.159 12.6379 17.159H20.3683V19.9009H11.5907V18.4883L9.00015 18.9731V19.3055C9.00015 20.404 9.21827 21.1517 9.6545 21.5487C10.0909 21.9457 10.9247 22.1443 12.1557 22.1443H16.8737V23.5528C16.8737 23.6807 16.9245 23.8033 17.0149 23.8937C17.1053 23.9841 17.228 24.0349 17.3559 24.0349H18.2731C18.401 24.0349 18.5236 23.9841 18.614 23.8937C18.7044 23.8033 18.7552 23.6807 18.7552 23.5528V22.1443H19.8998ZM16.0002 2.55991C8.57744 2.55991 2.56011 8.577 2.56011 15.9995C2.56011 23.4219 8.57744 29.439 16.0002 29.439C23.423 29.439 29.4403 23.4219 29.4403 15.9995C29.4403 8.577 23.423 2.55991 16.0002 2.55991ZM16.0002 27.5191C9.63783 27.5191 4.48012 22.3616 4.48012 15.9995C4.48012 9.63735 9.63783 4.47985 16.0002 4.47985C22.3626 4.47985 27.5203 9.63735 27.5203 15.9995C27.5203 22.3616 22.3626 27.5191 16.0002 27.5191Z" fill="white"/>
<path fill-rule="evenodd" clip-rule="evenodd" d="M9.15527e-05 15.9995C9.15527e-05 7.1632 7.16358 0 16.0002 0C24.8368 0 32.0003 7.1632 32.0003 15.9995C32.0003 24.8357 24.8368 31.9989 16.0002 31.9989C7.16358 31.9989 9.15527e-05 24.8357 9.15527e-05 15.9995ZM2.56011 15.9995C2.56011 8.577 8.57744 2.55991 16.0002 2.55991C23.423 2.55991 29.4403 8.577 29.4403 15.9995C29.4403 23.4219 23.423 29.439 16.0002 29.439C8.57744 29.439 2.56011 23.4219 2.56011 15.9995Z" fill="white"/>
</svg>
